<svg xmlns="http://www.w3.org/2000/svg" width="1400" height="400" viewBox="0 0 1400 400">
  <rect width="1400" height="400" rx="36" fill="#F1F5F9"/>
  <rect x="40" y="40" width="320" height="320" rx="56" fill="#0EA5E9"/>
  <circle cx="188" cy="210" r="66" fill="#F8FAFC"/>
  <rect x="234" y="222" width="64" height="24" rx="8" fill="#1E293B"/>
  <rect x="272" y="236" width="26" height="54" rx="8" fill="#1E293B"/>
  <rect x="130" y="124" width="120" height="24" rx="10" fill="#334155"/>
  <rect x="174" y="138" width="20" height="66" rx="8" fill="#334155"/>
  <circle cx="188" cy="210" r="34" fill="#94A3B8"/>
  <text x="410" y="190" font-family="Arial, Helvetica, sans-serif" font-size="88" font-weight="800" fill="#0F172A">THEKEDAARI</text>
  <text x="1030" y="190" font-family="Arial, Helvetica, sans-serif" font-size="60" font-weight="700" fill="#0284C7">.com</text>
  <text x="412" y="255" font-family="Arial, Helvetica, sans-serif" font-size="34" font-weight="600" fill="#475569">
    Concrete sites, labour teams and daily cashflow
  </text>
  <g transform="translate(1230 58)">
    <rect width="122" height="122" rx="28" fill="#0F172A"/>
    <path d="M20 68c0-21 17-38 38-38s38 17 38 38v10H20z" fill="#F59E0B"/>
    <rect x="16" y="78" width="84" height="14" rx="7" fill="#334155"/>
    <path d="M40 62v-10c0-10 8-18 18-18s18 8 18 18v10" fill="none" stroke="#fff" stroke-width="7" stroke-linecap="round"/>
  </g>
</svg>
