<svg xmlns="http://www.w3.org/2000/svg" width="1400" height="400" viewBox="0 0 1400 400">
  <rect width="1400" height="400" rx="36" fill="#F8FAFC"/>
  <rect x="40" y="40" width="320" height="320" rx="56" fill="#1E293B"/>
  <rect x="94" y="86" width="126" height="228" rx="18" fill="#2563EB"/>
  <rect x="230" y="122" width="78" height="192" rx="12" fill="#1D4ED8"/>
  <rect x="112" y="130" width="88" height="12" rx="6" fill="#E0E7FF"/>
  <rect x="112" y="160" width="88" height="12" rx="6" fill="#E0E7FF"/>
  <rect x="112" y="190" width="88" height="12" rx="6" fill="#E0E7FF"/>
  <rect x="112" y="220" width="136" height="12" rx="6" fill="#F8FAFC"/>
  <rect x="112" y="248" width="120" height="12" rx="6" fill="#F8FAFC"/>
  <circle cx="272" cy="96" r="24" fill="#16A34A"/>
  <path d="M258 95h24M258 105h24M260 105l18 12" stroke="#fff" stroke-width="5" stroke-linecap="round"/>
  <text x="410" y="190" font-family="Arial, Helvetica, sans-serif" font-size="88" font-weight="800" fill="#0F172A">THEKEDAARI</text>
  <text x="1030" y="190" font-family="Arial, Helvetica, sans-serif" font-size="60" font-weight="700" fill="#2563EB">.com</text>
  <text x="412" y="255" font-family="Arial, Helvetica, sans-serif" font-size="34" font-weight="600" fill="#475569">
    Labour Ledger, Attendance and Finance
  </text>
  <g transform="translate(1230 58)">
    <rect width="122" height="122" rx="28" fill="#0F172A"/>
    <path d="M20 68c0-21 17-38 38-38s38 17 38 38v10H20z" fill="#F59E0B"/>
    <rect x="16" y="78" width="84" height="14" rx="7" fill="#334155"/>
    <path d="M40 62v-10c0-10 8-18 18-18s18 8 18 18v10" fill="none" stroke="#fff" stroke-width="7" stroke-linecap="round"/>
  </g>
</svg>
