<svg xmlns="http://www.w3.org/2000/svg" width="512" height="512" viewBox="0 0 512 512">
  <rect width="512" height="512" rx="96" fill="#0891B2"/>
  <rect x="82" y="344" width="348" height="24" rx="12" fill="#0F172A"/>
  <path d="M102 342c34-96 88-144 154-144s120 48 154 144" fill="none" stroke="#E2E8F0" stroke-width="18" stroke-linecap="round"/>
  <rect x="126" y="262" width="14" height="80" rx="7" fill="#E2E8F0"/>
  <rect x="188" y="228" width="14" height="114" rx="7" fill="#E2E8F0"/>
  <rect x="250" y="212" width="14" height="130" rx="7" fill="#E2E8F0"/>
  <rect x="312" y="228" width="14" height="114" rx="7" fill="#E2E8F0"/>
  <rect x="374" y="262" width="14" height="80" rx="7" fill="#E2E8F0"/>
  <circle cx="386" cy="134" r="46" fill="#16A34A"/>
  <path d="M361 120h40M361 136h40M365 136l30 20" stroke="#ffffff" stroke-width="10" stroke-linecap="round" stroke-linejoin="round"/>
</svg>
