<svg xmlns="http://www.w3.org/2000/svg" width="1400" height="400" viewBox="0 0 1400 400">
  <rect width="1400" height="400" rx="36" fill="#F8FAFC"/>
  <rect x="40" y="40" width="320" height="320" rx="56" fill="#7C3AED"/>
  <circle cx="156" cy="182" r="28" fill="#F59E0B"/>
  <circle cx="204" cy="160" r="28" fill="#16A34A"/>
  <circle cx="252" cy="182" r="28" fill="#0EA5E9"/>
  <rect x="122" y="216" width="68" height="38" rx="18" fill="#D97706"/>
  <rect x="170" y="238" width="68" height="38" rx="18" fill="#15803D"/>
  <rect x="218" y="216" width="68" height="38" rx="18" fill="#0369A1"/>
  <rect x="144" y="110" width="112" height="38" rx="12" fill="#DBEAFE"/>
  <text x="410" y="190" font-family="Arial, Helvetica, sans-serif" font-size="88" font-weight="800" fill="#111827">THEKEDAARI</text>
  <text x="1030" y="190" font-family="Arial, Helvetica, sans-serif" font-size="60" font-weight="700" fill="#2563EB">.com</text>
  <text x="412" y="255" font-family="Arial, Helvetica, sans-serif" font-size="34" font-weight="600" fill="#475569">
    Smart crew management for contractors
  </text>
  <g transform="translate(1230 58)">
    <rect width="122" height="122" rx="28" fill="#0F172A"/>
    <path d="M20 68c0-21 17-38 38-38s38 17 38 38v10H20z" fill="#F59E0B"/>
    <rect x="16" y="78" width="84" height="14" rx="7" fill="#334155"/>
    <path d="M40 62v-10c0-10 8-18 18-18s18 8 18 18v10" fill="none" stroke="#fff" stroke-width="7" stroke-linecap="round"/>
  </g>
</svg>
