<svg xmlns="http://www.w3.org/2000/svg" width="1400" height="400" viewBox="0 0 1400 400">
  <rect width="1400" height="400" rx="36" fill="#F8FAFC"/>
  <rect x="40" y="40" width="320" height="320" rx="56" fill="#334155"/>
  <rect x="90" y="250" width="196" height="34" rx="12" transform="rotate(-30 188 267)" fill="#F59E0B"/>
  <rect x="228" y="166" width="44" height="34" rx="6" transform="rotate(-30 250 183)" fill="#FB923C"/>
  <rect x="122" y="126" width="164" height="28" rx="8" fill="#94A3B8"/>
  <path d="M132 130v20M150 130v20M168 130v20M186 130v20M204 130v20M222 130v20M240 130v20M258 130v20" stroke="#E2E8F0" stroke-width="4"/>
  <text x="410" y="190" font-family="Arial, Helvetica, sans-serif" font-size="88" font-weight="800" fill="#0F172A">THEKEDAARI</text>
  <text x="1030" y="190" font-family="Arial, Helvetica, sans-serif" font-size="60" font-weight="700" fill="#2563EB">.com</text>
  <text x="412" y="255" font-family="Arial, Helvetica, sans-serif" font-size="34" font-weight="600" fill="#475569">
    Built for precision in site execution
  </text>
  <g transform="translate(1230 58)">
    <rect width="122" height="122" rx="28" fill="#0F172A"/>
    <path d="M20 68c0-21 17-38 38-38s38 17 38 38v10H20z" fill="#F59E0B"/>
    <rect x="16" y="78" width="84" height="14" rx="7" fill="#334155"/>
    <path d="M40 62v-10c0-10 8-18 18-18s18 8 18 18v10" fill="none" stroke="#fff" stroke-width="7" stroke-linecap="round"/>
  </g>
</svg>
