<svg xmlns="http://www.w3.org/2000/svg" width="512" height="512" viewBox="0 0 512 512">
  <rect width="512" height="512" rx="96" fill="#DC2626"/>
  <g fill="#FCA5A5">
    <rect x="96" y="108" width="148" height="64" rx="12"/>
    <rect x="254" y="108" width="162" height="64" rx="12"/>
    <rect x="96" y="182" width="102" height="64" rx="12"/>
    <rect x="208" y="182" width="124" height="64" rx="12"/>
    <rect x="342" y="182" width="74" height="64" rx="12"/>
    <rect x="96" y="256" width="148" height="64" rx="12"/>
    <rect x="254" y="256" width="162" height="64" rx="12"/>
    <rect x="96" y="330" width="102" height="64" rx="12"/>
    <rect x="208" y="330" width="124" height="64" rx="12"/>
    <rect x="342" y="330" width="74" height="64" rx="12"/>
  </g>
  <path d="M140 152h218M220 152v208" stroke="#7F1D1D" stroke-width="26" stroke-linecap="round"/>
  <path d="M300 152v208M300 258l96-106M300 258l102 104" stroke="#7F1D1D" stroke-width="22" stroke-linecap="round" stroke-linejoin="round"/>
</svg>
