<svg xmlns="http://www.w3.org/2000/svg" width="1400" height="400" viewBox="0 0 1400 400">
  <rect width="1400" height="400" rx="36" fill="#F8FAFC"/>
  <rect x="40" y="40" width="320" height="320" rx="56" fill="#1E293B"/>
  <rect x="116" y="98" width="18" height="190" rx="9" fill="#E2E8F0"/>
  <rect x="116" y="98" width="132" height="18" rx="9" fill="#E2E8F0"/>
  <rect x="232" y="114" width="14" height="100" rx="7" fill="#E2E8F0"/>
  <path d="M239 214c0 26-18 38-36 38" fill="none" stroke="#F59E0B" stroke-width="14" stroke-linecap="round"/>
  <rect x="156" y="250" width="132" height="18" rx="9" fill="#334155"/>
  <circle cx="196" cy="252" r="14" fill="#FB923C"/>
  <text x="410" y="190" font-family="Arial, Helvetica, sans-serif" font-size="88" font-weight="800" fill="#0F172A">THEKEDAARI</text>
  <text x="1030" y="190" font-family="Arial, Helvetica, sans-serif" font-size="60" font-weight="700" fill="#2563EB">.com</text>
  <text x="412" y="255" font-family="Arial, Helvetica, sans-serif" font-size="34" font-weight="600" fill="#475569">
    From site attendance to final payments
  </text>
  <g transform="translate(1230 58)">
    <rect width="122" height="122" rx="28" fill="#0F172A"/>
    <path d="M20 68c0-21 17-38 38-38s38 17 38 38v10H20z" fill="#F59E0B"/>
    <rect x="16" y="78" width="84" height="14" rx="7" fill="#334155"/>
    <path d="M40 62v-10c0-10 8-18 18-18s18 8 18 18v10" fill="none" stroke="#fff" stroke-width="7" stroke-linecap="round"/>
  </g>
</svg>
