<svg xmlns="http://www.w3.org/2000/svg" width="1400" height="400" viewBox="0 0 1400 400">
  <rect width="1400" height="400" rx="36" fill="#ECFDF5"/>
  <rect x="40" y="40" width="320" height="320" rx="56" fill="#065F46"/>
  <rect x="102" y="94" width="196" height="220" rx="22" fill="#D1FAE5"/>
  <rect x="126" y="130" width="148" height="14" rx="7" fill="#10B981"/>
  <rect x="126" y="162" width="148" height="14" rx="7" fill="#10B981"/>
  <rect x="126" y="194" width="148" height="14" rx="7" fill="#10B981"/>
  <circle cx="248" cy="246" r="34" fill="#16A34A"/>
  <path d="M230 234h36M230 246h36M232 246l26 16" stroke="#fff" stroke-width="6" stroke-linecap="round"/>
  <text x="410" y="190" font-family="Arial, Helvetica, sans-serif" font-size="88" font-weight="800" fill="#064E3B">THEKEDAARI</text>
  <text x="1030" y="190" font-family="Arial, Helvetica, sans-serif" font-size="60" font-weight="700" fill="#059669">.com</text>
  <text x="412" y="255" font-family="Arial, Helvetica, sans-serif" font-size="34" font-weight="600" fill="#065F46">
    Daily hisaab made simple for construction
  </text>
  <g transform="translate(1230 58)">
    <rect width="122" height="122" rx="28" fill="#064E3B"/>
    <path d="M20 68c0-21 17-38 38-38s38 17 38 38v10H20z" fill="#F59E0B"/>
    <rect x="16" y="78" width="84" height="14" rx="7" fill="#022C22"/>
    <path d="M40 62v-10c0-10 8-18 18-18s18 8 18 18v10" fill="none" stroke="#fff" stroke-width="7" stroke-linecap="round"/>
  </g>
</svg>
