<svg xmlns="http://www.w3.org/2000/svg" width="1400" height="400" viewBox="0 0 1400 400">
  <rect width="1400" height="400" rx="36" fill="#F8FAFC"/>
  <rect x="40" y="40" width="320" height="320" rx="56" fill="#1D4ED8"/>
  <rect x="92" y="98" width="216" height="204" rx="20" fill="#DBEAFE"/>
  <rect x="112" y="120" width="176" height="8" rx="4" fill="#93C5FD"/>
  <rect x="112" y="146" width="176" height="8" rx="4" fill="#93C5FD"/>
  <rect x="112" y="172" width="176" height="8" rx="4" fill="#93C5FD"/>
  <rect x="136" y="204" width="60" height="74" rx="8" fill="none" stroke="#2563EB" stroke-width="8"/>
  <rect x="214" y="204" width="60" height="42" rx="8" fill="none" stroke="#2563EB" stroke-width="8"/>
  <path d="M214 260h60" stroke="#2563EB" stroke-width="8" stroke-linecap="round"/>
  <text x="410" y="190" font-family="Arial, Helvetica, sans-serif" font-size="88" font-weight="800" fill="#0F172A">THEKEDAARI</text>
  <text x="1030" y="190" font-family="Arial, Helvetica, sans-serif" font-size="60" font-weight="700" fill="#2563EB">.com</text>
  <text x="412" y="255" font-family="Arial, Helvetica, sans-serif" font-size="34" font-weight="600" fill="#475569">
    Plan, track and close every site project
  </text>
  <g transform="translate(1230 58)">
    <rect width="122" height="122" rx="28" fill="#0F172A"/>
    <path d="M20 68c0-21 17-38 38-38s38 17 38 38v10H20z" fill="#F59E0B"/>
    <rect x="16" y="78" width="84" height="14" rx="7" fill="#334155"/>
    <path d="M40 62v-10c0-10 8-18 18-18s18 8 18 18v10" fill="none" stroke="#fff" stroke-width="7" stroke-linecap="round"/>
  </g>
</svg>
