<svg xmlns="http://www.w3.org/2000/svg" width="512" height="512" viewBox="0 0 512 512">
  <rect width="512" height="512" rx="96" fill="#0F172A"/>
  <rect x="104" y="100" width="180" height="312" rx="20" fill="#2563EB"/>
  <rect x="300" y="152" width="108" height="260" rx="16" fill="#1D4ED8"/>
  <g fill="#BFDBFE">
    <rect x="130" y="132" width="30" height="30" rx="4"/>
    <rect x="176" y="132" width="30" height="30" rx="4"/>
    <rect x="222" y="132" width="30" height="30" rx="4"/>
    <rect x="130" y="178" width="30" height="30" rx="4"/>
    <rect x="176" y="178" width="30" height="30" rx="4"/>
    <rect x="222" y="178" width="30" height="30" rx="4"/>
  </g>
  <rect x="134" y="250" width="238" height="16" rx="8" fill="#F8FAFC"/>
  <rect x="134" y="286" width="238" height="16" rx="8" fill="#F8FAFC"/>
  <rect x="134" y="322" width="190" height="16" rx="8" fill="#F8FAFC"/>
  <rect x="88" y="412" width="336" height="20" rx="10" fill="#334155"/>
</svg>
