<svg xmlns="http://www.w3.org/2000/svg" width="1400" height="400" viewBox="0 0 1400 400">
  <rect width="1400" height="400" rx="36" fill="#EFF6FF"/>
  <rect x="40" y="40" width="320" height="320" rx="56" fill="#0369A1"/>
  <path d="M114 118l66-24 70 24 66-24v196l-66 24-70-24-66 24z" fill="#E0F2FE"/>
  <path d="M180 94v196M250 118v196" stroke="#0284C7" stroke-width="8"/>
  <circle cx="250" cy="196" r="30" fill="#2563EB"/>
  <path d="M250 175l12 24h-24z" fill="#fff"/>
  <text x="410" y="190" font-family="Arial, Helvetica, sans-serif" font-size="88" font-weight="800" fill="#0F172A">THEKEDAARI</text>
  <text x="1030" y="190" font-family="Arial, Helvetica, sans-serif" font-size="60" font-weight="700" fill="#0284C7">.com</text>
  <text x="412" y="255" font-family="Arial, Helvetica, sans-serif" font-size="34" font-weight="600" fill="#334155">
    Live site tracking and team coordination
  </text>
  <g transform="translate(1230 58)">
    <rect width="122" height="122" rx="28" fill="#0F172A"/>
    <path d="M20 68c0-21 17-38 38-38s38 17 38 38v10H20z" fill="#F59E0B"/>
    <rect x="16" y="78" width="84" height="14" rx="7" fill="#334155"/>
    <path d="M40 62v-10c0-10 8-18 18-18s18 8 18 18v10" fill="none" stroke="#fff" stroke-width="7" stroke-linecap="round"/>
  </g>
</svg>
