<svg xmlns="http://www.w3.org/2000/svg" width="1400" height="400" viewBox="0 0 1400 400">
  <rect width="1400" height="400" rx="36" fill="#FFFFFF"/>
  <rect x="40" y="40" width="320" height="320" rx="56" fill="#0F172A"/>
  <rect x="104" y="108" width="16" height="188" rx="8" fill="#E2E8F0"/>
  <rect x="104" y="108" width="136" height="16" rx="8" fill="#E2E8F0"/>
  <rect x="222" y="124" width="12" height="96" rx="6" fill="#E2E8F0"/>
  <circle cx="228" cy="234" r="14" fill="#F59E0B"/>
  <rect x="96" y="292" width="208" height="12" rx="6" fill="#334155"/>
  <rect x="250" y="92" width="54" height="28" rx="10" fill="#2563EB"/>
  <text x="410" y="190" font-family="Arial, Helvetica, sans-serif" font-size="88" font-weight="800" fill="#0F172A">THEKEDAARI</text>
  <text x="1030" y="190" font-family="Arial, Helvetica, sans-serif" font-size="60" font-weight="700" fill="#2563EB">.com</text>
  <text x="412" y="255" font-family="Arial, Helvetica, sans-serif" font-size="34" font-weight="600" fill="#475569">
    Site Management, Attendance and Payments
  </text>
  <g transform="translate(1230 58)">
    <rect width="122" height="122" rx="28" fill="#0F172A"/>
    <path d="M20 68c0-21 17-38 38-38s38 17 38 38v10H20z" fill="#F59E0B"/>
    <rect x="16" y="78" width="84" height="14" rx="7" fill="#334155"/>
    <path d="M40 62v-10c0-10 8-18 18-18s18 8 18 18v10" fill="none" stroke="#fff" stroke-width="7" stroke-linecap="round"/>
  </g>
</svg>
