<svg xmlns="http://www.w3.org/2000/svg" width="512" height="512" viewBox="0 0 512 512">
  <rect width="512" height="512" rx="96" fill="#1F2937"/>
  <path d="M256 78l152 56v110c0 108-68 178-152 224-84-46-152-116-152-224V134l152-56z" fill="#2563EB"/>
  <path d="M256 114l118 44v88c0 82-49 137-118 177-69-40-118-95-118-177v-88l118-44z" fill="#DBEAFE"/>
  <rect x="248" y="178" width="18" height="158" rx="9" transform="rotate(-40 257 257)" fill="#F59E0B"/>
  <rect x="244" y="174" width="26" height="54" rx="8" transform="rotate(-40 257 201)" fill="#FB923C"/>
  <rect x="247" y="176" width="16" height="158" rx="8" transform="rotate(40 255 255)" fill="#16A34A"/>
  <circle cx="256" cy="255" r="16" fill="#ffffff"/>
</svg>
